<?xml version="1.0" encoding="UTF-8" standalone="no"?>
<svg
   width="64"
   height="64"
   version="1.1"
   id="svg3"
   sodipodi:docname="flstudio.svg"
   xml:space="preserve"
   inkscape:version="1.4.2 (ebf0e940d0, 2025-05-08)"
   xmlns:inkscape="http://www.inkscape.org/namespaces/inkscape"
   xmlns:sodipodi="http://sodipodi.sourceforge.net/DTD/sodipodi-0.dtd"
   xmlns="http://www.w3.org/2000/svg"
   xmlns:svg="http://www.w3.org/2000/svg"><defs
     id="defs3" /><sodipodi:namedview
     id="namedview3"
     pagecolor="#ffffff"
     bordercolor="#000000"
     borderopacity="0.25"
     inkscape:showpageshadow="2"
     inkscape:pageopacity="0.0"
     inkscape:pagecheckerboard="0"
     inkscape:deskcolor="#d1d1d1"
     inkscape:zoom="7.2734375"
     inkscape:cx="36.090226"
     inkscape:cy="25.641246"
     inkscape:window-width="2052"
     inkscape:window-height="1306"
     inkscape:window-x="0"
     inkscape:window-y="0"
     inkscape:window-maximized="1"
     inkscape:current-layer="svg3" /><g
     inkscape:label="Layer 1"
     id="layer1"
     transform="matrix(0.10733181,0,0,0.10792461,4.6435504,4.206363)"><ellipse
       style="fill:#313a42;fill-opacity:1;stroke:#4b555d;stroke-width:24.4366;stroke-dasharray:none;stroke-opacity:1"
       id="path1-3"
       cx="256.56018"
       cy="254.59956"
       rx="238.97592"
       ry="239.25601"
       inkscape:label="path1" /><path
       style="fill:#607347;fill-opacity:1;stroke:none;stroke-width:21.9024;stroke-dasharray:none;stroke-opacity:1"
       d="m 323.22052,74.467473 91.89603,-62.584366 6.33766,6.337658 -91.89603,64.16878 z"
       id="path5" /><path
       style="fill:#f8a400;fill-opacity:1;stroke:none;stroke-width:20.1653;stroke-dasharray:none;stroke-opacity:1"
       d="m 326.20791,88.581615 c 0,0 -63.21608,-38.509027 -130.02399,14.811165 -66.80789,53.32019 -62.49771,310.29391 -47.41205,322.8834 C 163.85753,438.86567 387.2689,328.52249 400.19945,227.80657 413.13001,127.09064 326.20791,88.581615 326.20791,88.581615 Z"
       id="path2-6" /><path
       style="fill:#598029;fill-opacity:1;stroke:none;stroke-width:21.9024;stroke-dasharray:none;stroke-opacity:1"
       d="m 293.11665,90.311616 c 0,0 -104.57135,46.740224 -129.92198,38.025944 -25.35062,-8.71428 5.54546,-73.675266 41.19478,-82.389545 35.64932,-8.714278 82.38954,-19.012972 111.70121,24.558422 C 345.40232,114.07783 409.5711,241.62318 421.45421,227.36345 433.33732,213.10373 449.97367,143.3895 433.33732,108.53238 416.70097,73.675266 293.11665,90.311616 293.11665,90.311616 Z"
       id="path3-7" /><path
       style="fill:#628d2d;fill-opacity:1;stroke:none;stroke-width:21.9024;stroke-dasharray:none;stroke-opacity:1"
       d="m 327.18156,72.883059 c 0,0 -46.74023,-1.584415 -62.58437,28.519461 -15.84414,30.10387 -5.54545,87.14278 28.51946,92.68823 34.06491,5.54545 76.84409,-38.02594 82.38954,-69.71423 5.54545,-31.688282 -48.32463,-51.493461 -48.32463,-51.493461 z"
       id="path4" /></g></svg>
